# AST/ASF file generated using VICON BodyLanguage
# -----------------------------------------------
:version 1.10
:name VICON
:units
  mass 1.0
  length 0.45
  angle deg
:documentation
   .ast/.asf automatically generated from VICON data using
   VICON BodyBuilder and BodyLanguage model FoxedUp or BRILLIANT.MOD
:root
   order TX TY TZ RX RY RZ
   axis XYZ
   position 0 0 0  
   orientation 0 0 0 
:bonedata
  begin
     id 1 
     name lhipjoint
     direction 0.588788 -0.725889 0.355548 
     length 2.37778 
     axis 0 0 0  XYZ
  end
  begin
     id 2 
     name lfemur
     direction 0.34202 -0.939693 0  
     length 6.86393  
     axis 0 0 20  XYZ
    dof rx ry rz
    limits (-160.0 20.0)
           (-70.0 70.0)
           (-60.0 70.0)
  end
  begin
     id 3 
     name ltibia
     direction 0.34202 -0.939693 0   
     length 7.32851   
     axis 0 0 20   XYZ
    dof rx
    limits (-10.0 170.0)
  end
  begin
     id 4 
     name lfoot
     direction 0.0626533 -0.172138 0.983078   
     length 1.98929   
     axis -90 7.62852e-016 20   XYZ
    dof rx rz
    limits (-45.0 90.0)
           (-70.0 20.0)
  end
  begin
     id 5 
     name ltoes
     direction 1.53647e-011 -4.21734e-011 1   
     length 1.00479   
     axis -90 7.62852e-016 20   XYZ
    dof rx
    limits (-90.0 20.0)
  end
  begin
     id 6 
     name rhipjoint
     direction -0.59141 -0.724168 0.354705   
     length 2.38343  
     axis 0 0 0  XYZ 
  end
  begin
     id 7 
     name rfemur
     direction -0.34202 -0.939693 0   
     length 6.95589   
     axis 0 0 -20   XYZ
    dof rx ry rz
    limits (-160.0 20.0)
           (-70.0 70.0)
           (-70.0 60.0)
  end
  begin
     id 8 
     name rtibia
     direction -0.34202 -0.939693 0   
     length 7.32327   
     axis 0 0 -20   XYZ
    dof rx
    limits (-10.0 170.0)
 end
 begin
     id 9 
     name rfoot
     direction -0.0660461 -0.18146 0.981178   
     length 1.85272  
     axis -90 -7.62852e-016 -20   XYZ
    dof rx rz
    limits (-45.0 90.0)
           (-20.0 70.0)
  end
  begin
     id 10 
     name rtoes
     direction -1.53586e-011 -4.21988e-011 1   
     length 0.93746   
     axis -90 -7.62852e-016 -20   XYZ
    dof rx
    limits (-90.0 20.0)
  end
  begin
     id 11 
     name lowerback
     direction -0.0107982 0.991059 0.13299   
     length 1.98691   
     axis 0 0 0   XYZ
    dof rx ry rz
    limits (-20.0 45.0)
           (-30.0 30.0)
           (-30.0 30.0)
  end
  begin
     id 12 
     name upperback
     direction 0.0076296 0.999916 0.0104576   
     length 1.99501   
     axis 0 0 0   XYZ
    dof rx ry rz
    limits (-20.0 45.0)
           (-30.0 30.0)
           (-30.0 30.0)
  end
  begin
     id 13 
     name thorax
     direction 0.01176 0.998615 -0.0512909   
     length 2.03144   
     axis 0 0 0   XYZ
    dof rx ry rz
    limits (-20.0 45.0)
           (-30.0 30.0)
           (-30.0 30.0)
  end
  begin
     id 14 
     name lowerneck
     direction -0.0171909 0.999644 0.0204011   
     length 1.71818   
     axis 0 0 0   XYZ
    dof rx ry rz
    limits (-20.0 45.0)
           (-30.0 30.0)
           (-30.0 30.0)
  end
  begin
     id 15 
     name upperneck
     direction 0.0250902 0.997482 -0.0663316   
     length 1.66199   
     axis 0 0 0   XYZ
    dof rx ry rz
    limits (-20.0 45.0)
           (-30.0 30.0)
           (-30.0 30.0)
  end
  begin
     id 16
     name head
     direction 0.00881535 0.99956 -0.0283365  
     length 1.81545  
     axis 0 0 0   XYZ
    dof rx ry rz
    limits (-20.0 45.0)
           (-30.0 30.0)
           (-30.0 30.0)
  end
  begin
     id 17 
     name lclavicle
     direction 0.840411 0.486876 -0.238035  
     length 3.30409  
     axis 0 0 0   XYZ
    dof ry rz
    limits (-20.0 10.0)
           (0.0 20.0)
  end
  begin
     id 18 
     name lhumerus
     direction 1 -4.48977e-011 -5.16239e-027   
     length 4.62672   
     axis 180 -30 -90   XYZ
    dof rx ry rz
    limits (-60.0 90.0)
           (-90.0 90.0)
           (-90.0 90.0)
  end
  begin
     id 19
     name lradius
     direction 1 -4.48977e-011 -8.71171e-027   
     length 3.11018   
     axis 180 -30 -90   XYZ
    dof rx
    limits (-10.0 170.0)
  end
  begin
     id 20
     name lwrist
     direction 1 -4.48912e-011 -1.03764e-026   
     length 1.55509   
     axis 9.09556e-015 90 90   XYZ
    dof ry
    limits (-180.0 0.0)
 end
  begin
     id 21 
     name lhand
     direction 1 -4.49072e-011 -2.07528e-026   
     length 0.743834   
     axis 1.3242e-014 90 90   XYZ
    dof rx rz
    limits (-90.0 90.0)
           (-45.0 45.0)
  end
  begin
     id 22 
     name lfingers
     direction 1 -4.48909e-011 -4.15056e-026   
     length 0.599698   
     axis 2.64841e-014 90 90   XYZ
    dof rx
    limits (0.0 90.0)
  end
  begin
     id 23
     name lthumb
     direction 0.707107 -6.35013e-011 0.707107   
     length 0.86105   
     axis -90 45 2.85299e-015   XYZ
    dof rx rz
    limits (-45.0 45.0)
           (-45.0 45.0)
  end
  begin
     id 24 
     name rclavicle
     direction -0.835208 0.500237 -0.228452   
     length 3.2716  
     axis 0 0 0   XYZ 
    dof ry rz
    limits (-10.0 20.0)
           (-20.0 0.0)
  end
  begin
     id 25 
     name rhumerus
     direction -1 -4.48978e-011 -5.1953e-028  
     length 4.55919   
     axis 180 30 90   XYZ
    dof rx ry rz
    limits (-90.0 60.0)
           (-90.0 90.0)
           (-90.0 90.0)
  end
  begin
     id 26 
     name rradius
     direction -1 -4.48961e-011 -5.99546e-027   
     length 3.22748   
     axis 180 30 90   XYZ
    dof rx
    limits (-10.0 170.0)
  end
  begin
     id 27 
     name rwrist
     direction -1 -4.48986e-011 -1.03764e-026   
     length 1.61374   
     axis 9.09556e-015 -90 -90   XYZ
    dof ry
    limits (-180.0 0.0)
  end
  begin
     id 28
     name rhand
     direction -1 -4.4899e-011 -2.07528e-026   
     length 0.700882   
     axis 1.3242e-014 -90 -90   XYZ
    dof rx rz
    limits (-90.0 90.0)
           (-45.0 45.0)
  end
  begin
     id 29
     name rfingers
     direction -1 -4.48991e-011 -4.15056e-026   
     length 0.565069   
     axis 2.64841e-014 -90 -90   XYZ
    dof rx
    limits (0.0 90.0)
  end
  begin
     id 30
     name rthumb
     direction -0.707107 -6.34804e-011 0.707107   
     length 0.811329   
     axis -90 -45 -2.85299e-015   XYZ
    dof rx rz
    limits (-45.0 45.0)
           (-45.0 45.0)
  end
:hierarchy
  begin
    root lhipjoint rhipjoint lowerback
    lhipjoint lfemur
    lfemur ltibia
    ltibia lfoot
    lfoot ltoes
    rhipjoint rfemur
    rfemur rtibia
    rtibia rfoot
    rfoot rtoes
    lowerback upperback
    upperback thorax
    thorax lowerneck lclavicle rclavicle
    lowerneck upperneck
    upperneck head
    lclavicle lhumerus
    lhumerus lradius
    lradius lwrist
    lwrist lhand lthumb
    lhand lfingers
    rclavicle rhumerus
    rhumerus rradius
    rradius rwrist
    rwrist rhand rthumb
    rhand rfingers
  end

#!OML:ASF F:\VICON\USERDATA\INSTALL\SteveWalk\SteveWalk.ASF
:FULLY-SPECIFIED
:DEGREES
268
root 1.12152 16.0829 13.5903 19.728 -8.31012 -1.24149
lowerback -17.5078 2.42221 1.2925
upperback -4.94371 2.93533 0.169967
thorax 4.55661 1.44465 0.0651938
lowerneck -4.37376 -0.341134 -0.256166
upperneck 11.0284 -0.36704 -0.663145
head 4.41178 -0.224952 -0.196704
rclavicle 3.71727e-014 1.80894e-014
rhumerus -19.6429 8.85407 -85.4685
rradius 62.2902
rwrist -16.9305
rhand -18.1175 -31.0265
rfingers 7.12502
rthumb 8.15696 -60.8491
lclavicle 3.71727e-014 1.80894e-014
lhumerus -75.7258 29.1085 29.9275
lradius 10.3406
lwrist -55.8276
lhand -9.37696 -15.9215
lfingers 7.12502
lthumb 16.5836 13.3899
rfemur -2.31609 -6.25866 21.293
rtibia 21.342
rfoot -20.1833 18.768
rtoes -5.72727
lfemur -50.3685 6.89272 -22.2231
ltibia 14.2613
lfoot -10.4368 1.83548
ltoes -1.97341
269
root 1.11903 16.0402 13.8426 19.6446 -8.14576 -1.30706
lowerback -17.611 2.34322 0.996955
upperback -4.8918 2.87726 0.243517
thorax 4.64798 1.4151 0.302849
lowerneck -4.55286 -0.444996 -0.38232
upperneck 10.9808 -0.516183 -0.472739
head 4.43118 -0.29448 -0.118421
rclavicle -2.52332e-014 -4.57205e-015
rhumerus -20.0793 8.72636 -85.2637
rradius 62.6037
rwrist -17.3979
rhand -17.7627 -30.3392
rfingers 7.12502
rthumb 8.49936 -60.1481
lclavicle -2.52332e-014 -4.57205e-015
lhumerus -75.6044 28.6036 30.8065
lradius 10.4359
lwrist -54.222
lhand -10.0029 -16.3697
lfingers 7.12502
lthumb 15.9809 12.9911
rfemur -1.54016 -5.42556 21.1666
rtibia 21.9725
rfoot -18.9113 19.1618
rtoes -4.03863
lfemur -50.2288 5.79135 -21.4432
ltibia 16.1661
lfoot -11.3832 2.89136
ltoes -1.89611
270
root 1.11654 16.0051 14.099 19.5811 -7.91062 -1.26961
lowerback -17.4118 2.23213 0.484177
upperback -5.11099 2.81692 0.374481
thorax 4.27797 1.38549 0.703347
lowerneck -4.75935 -0.575332 -0.561144
upperneck 11.3036 -0.686918 -0.350649
head 4.59215 -0.381033 -0.0562869
rclavicle -1.84031e-014 -1.47101e-014
rhumerus -20.9917 8.41283 -84.814
rradius 62.9218
rwrist -18.0579
rhand -16.7798 -30.1105
rfingers 7.12502
rthumb 9.44785 -59.8787
lclavicle -1.84031e-014 -1.47101e-014
lhumerus -75.9935 28.0433 31.0311
lradius 10.5469
lwrist -53.3548
lhand -10.3618 -16.4618
lfingers 7.12502
lthumb 15.6352 12.9264
rfemur -0.962526 -4.91701 21.0134
rtibia 22.8086
rfoot -18.1934 18.9073
rtoes -6.88704
lfemur -50.1799 5.09019 -21.2329
ltibia 18.3157
lfoot -12.1907 3.02919
ltoes -2.51505
271
root 1.11541 15.9723 14.3614 19.5907 -7.57733 -1.27119
lowerback -17.458 2.10195 0.162145
upperback -5.34283 2.69751 0.441945
thorax 4.03864 1.32801 0.927219
lowerneck -4.61599 -0.672223 -0.605647
upperneck 11.4384 -0.8221 -0.283014
head 4.61313 -0.446392 -0.0327027
rclavicle 1.77384e-014 3.06128e-014
rhumerus -21.996 8.25643 -84.6356
rradius 63.1683
rwrist -18.4674
rhand -16.7109 -30.8319
rfingers 7.12502
rthumb 9.51434 -60.5971
lclavicle 1.77384e-014 3.06128e-014
lhumerus -76.2392 27.3223 31.6439
lradius 10.8537
lwrist -52.2045
lhand -10.3886 -16.3371
lfingers 7.12502
lthumb 15.6094 13.0531
rfemur -0.582213 -4.70005 20.9613
rtibia 23.6818
rfoot -17.0987 18.6103
rtoes -9.86858
lfemur -50.4537 4.61438 -21.3403
ltibia 20.6329
lfoot -11.511 3.075
ltoes -9.03592
272
root 1.11687 15.9503 14.6328 19.6213 -7.18153 -1.35979
lowerback -17.8411 1.99823 0.0880149
upperback -5.44509 2.57122 0.443106
thorax 4.13033 1.26497 0.956613
lowerneck -4.29417 -0.728642 -0.598028
upperneck 11.3363 -0.926323 -0.0642361
head 4.51179 -0.486231 0.0359467
rclavicle -1.74993e-014 -5.56597e-015
rhumerus -23.0655 8.38152 -84.7773
rradius 63.5577
rwrist -19.0268
rhand -18.0997 -32.4756
rfingers 7.12502
rthumb 8.17416 -62.2975
lclavicle -1.74993e-014 -5.56597e-015
lhumerus -76.4432 26.8674 31.8096
lradius 11.0066
lwrist -51.4338
lhand -10.6377 -16.4316
lfingers 7.12502
lthumb 15.3695 12.9772
rfemur -0.326431 -4.76246 20.9733
rtibia 24.7074
rfoot -15.3421 18.8035
rtoes -9.77866
lfemur -50.7529 4.25204 -21.4393
ltibia 22.7206
lfoot -9.78489 2.69014
ltoes -15.2308
273
root 1.11934 15.9499 14.9069 19.6401 -6.94815 -1.17587
lowerback -18.373 1.86644 -0.200921
upperback -5.44912 2.45281 0.33248
thorax 4.40051 1.20364 0.997576
lowerneck -4.20297 -0.737539 -0.590178
upperneck 11.3964 -0.97657 0.261933
head 4.51755 -0.49466 0.142197
rclavicle -2.89092e-014 -2.57426e-014
rhumerus -23.9663 8.52823 -85.0774
rradius 63.6984
rwrist -19.3852
rhand -19.5188 -33.2996
rfingers 7.12502
rthumb 6.80437 -63.1703
lclavicle -2.89092e-014 -2.57426e-014
lhumerus -77.3215 27.1218 30.0012
lradius 10.8393
lwrist -52.3405
lhand -11.0795 -16.9501
lfingers 7.12502
lthumb 14.9439 12.4908
rfemur -0.262065 -4.85992 20.6474
rtibia 25.9998
rfoot -13.2128 19.1039
rtoes -9.56413
lfemur -51.0194 3.44567 -21.2796
ltibia 24.4762
lfoot -7.70683 2.16597
ltoes -17.5137
274
root 1.12053 15.9534 15.1789 19.6607 -6.75696 -0.955371
lowerback -18.8857 1.72312 -0.509944
upperback -5.39352 2.33026 0.179407
thorax 4.72556 1.13896 1.00266
lowerneck -4.33912 -0.762261 -0.468638
upperneck 11.5127 -1.0453 0.48088
head 4.58885 -0.51219 0.190269
rclavicle 5.58679e-015 5.96354e-015
rhumerus -24.6235 8.43532 -85.4111
rradius 63.3789
rwrist -19.1602
rhand -20.1379 -32.7902
rfingers 7.12502
rthumb 6.20672 -62.6793
lclavicle 5.58679e-015 5.96354e-015
lhumerus -77.8323 27.4383 28.6052
lradius 10.6392
lwrist -53.042
lhand -11.3683 -17.4426
lfingers 7.12502
lthumb 14.6657 12.0188
rfemur -0.434895 -4.73238 20.3246
rtibia 27.6468
rfoot -10.6303 19.3183
rtoes -9.50744
lfemur -51.3812 2.65401 -20.9314
ltibia 26.0463
lfoot -5.72551 1.03077
ltoes -15.946
